<svg width="16" height="16" viewBox="0 0 16 16" fill="none" xmlns="http://www.w3.org/2000/svg">
<g clip-path="url(#clip0_3341_2121)">
<mask id="mask0_3341_2121" style="mask-type:luminance" maskUnits="userSpaceOnUse" x="0" y="0" width="16" height="16">
<path d="M8 16C12.4183 16 16 12.4183 16 8C16 3.58172 12.4183 0 8 0C3.58172 0 0 3.58172 0 8C0 12.4183 3.58172 16 8 16Z" fill="white"/>
</mask>
<g mask="url(#mask0_3341_2121)">
<path d="M0 0H16V16H0V0Z" fill="#6DA544"/>
<path d="M8 3.13135L14.6094 8.0001L8 12.8688L1.39062 8.0001L8 3.13135Z" fill="#FFDA44"/>
<path d="M5.44373 6.90619C5.28824 7.2638 5.21151 7.65068 5.21873 8.04056L10.2812 9.59681C10.5043 9.27823 10.6576 8.91618 10.7312 8.53431C9.46248 6.49369 6.9906 6.02494 5.44685 6.90931L5.44373 6.90619Z" fill="#EEEEEE"/>
<path d="M7.99062 5.21876C7.53358 5.21991 7.08386 5.33369 6.68125 5.55001C6.12712 5.84898 5.69084 6.32713 5.44375 6.90626C6.39058 6.70521 7.37309 6.74954 8.29796 7.03505C9.22284 7.32055 10.0594 7.83774 10.7281 8.53751C10.8524 7.90486 10.7529 7.24871 10.4469 6.68126C10.2082 6.238 9.85361 5.86785 9.42103 5.61028C8.98845 5.35272 8.49407 5.2174 7.99062 5.21876ZM6.625 7.82814C6.14813 7.82654 5.67385 7.89821 5.21875 8.04063C5.22401 8.48683 5.33655 8.92521 5.54688 9.31876C5.71995 9.64061 5.95474 9.92519 6.23785 10.1562C6.52096 10.3873 6.84683 10.5603 7.19683 10.6654C7.54683 10.7704 7.9141 10.8055 8.27766 10.7685C8.64121 10.7316 8.99392 10.6233 9.31563 10.45C9.69757 10.2443 10.0261 9.95219 10.275 9.59688C9.83637 9.04925 9.28114 8.60631 8.64973 8.30034C8.01832 7.99436 7.32662 7.83305 6.625 7.82814Z" fill="#0052B4"/>
</g>
</g>
<defs>
<clipPath id="clip0_3341_2121">
<rect width="16" height="16" fill="white"/>
</clipPath>
</defs>
</svg>
