<svg width="16" height="16" viewBox="0 0 16 16" fill="none" xmlns="http://www.w3.org/2000/svg">
<path d="M10.3239 7.82058L5.19333 12.9512C5.08056 13.0639 5.02014 13.2025 5.01208 13.3668C5.00403 13.5312 5.06444 13.6778 5.19333 13.8067C5.32222 13.9356 5.46481 14 5.62108 14C5.77736 14 5.91994 13.9356 6.04883 13.8067L11.351 8.50329C11.4565 8.39857 11.5306 8.29103 11.5733 8.18067C11.616 8.07031 11.6374 7.95028 11.6374 7.82058C11.6374 7.69089 11.616 7.57086 11.5733 7.4605C11.5306 7.35014 11.4565 7.24219 11.351 7.13667L6.04883 1.8345C5.93606 1.72172 5.7975 1.6613 5.63317 1.65325C5.46883 1.64519 5.32222 1.70561 5.19333 1.8345C5.06444 1.96339 5 2.10597 5 2.26225C5 2.41853 5.06444 2.56111 5.19333 2.69L10.3239 7.82058Z" fill="#421D13"/>
</svg>
