<svg width="16" height="16" viewBox="0 0 16 16" fill="none" xmlns="http://www.w3.org/2000/svg">
<path d="M6.31329 7.832L11.4439 2.70142C11.5567 2.58864 11.6171 2.45009 11.6251 2.28575C11.6332 2.12142 11.5728 1.97481 11.4439 1.84592C11.315 1.71703 11.1724 1.65259 11.0161 1.65259C10.8598 1.65259 10.7173 1.71703 10.5884 1.84592L5.28621 7.1493C5.18068 7.25402 5.10657 7.36156 5.06387 7.47192C5.02118 7.58228 4.99983 7.70231 4.99983 7.832C4.99983 7.9617 5.02118 8.08173 5.06387 8.19209C5.10657 8.30245 5.18068 8.41039 5.28621 8.51592L10.5884 13.8181C10.7012 13.9309 10.8397 13.9913 11.004 13.9993C11.1684 14.0074 11.315 13.947 11.4439 13.8181C11.5728 13.6892 11.6372 13.5466 11.6372 13.3903C11.6372 13.2341 11.5728 13.0915 11.4439 12.9626L6.31329 7.832Z" fill="#421D13"/>
</svg>
