<?xml version="1.0" encoding="UTF-8"?>
<svg id="Camada_2" data-name="Camada 2" xmlns="http://www.w3.org/2000/svg" viewBox="0 0 107.54 124">
  <defs>
    <style>
      .cls-1 {
        fill: #ad8a6c;
      }
    </style>
  </defs>
  <g id="Layer_1" data-name="Layer 1">
    <path class="cls-1" d="M25.86,76.9c-4.6,0-9.21.13-13.81-.05-2.43-.1-4.92-.45-7.22-1.2-5.23-1.7-6.47-6.6-2.44-10.31,2.96-2.73,6.39-5.02,9.81-7.18,4.87-3.07,9.98-5.74,14.87-8.78,3.49-2.17,3.53-3.74.39-6.54-4.94-4.4-10.02-8.64-14.93-13.08-2.59-2.34-5-4.89-7.4-7.44-2.52-2.67-3.69-7.59-2.41-9.6,1.37-2.17,6.89-3.84,10.13-3.08,6.42,1.51,11.51,5.14,15.76,10.02,2.98,3.42,5.77,7.01,8.72,10.44.51.59,1.44.81,2.18,1.21.32-.78.94-1.57.91-2.33-.17-3.96-.52-7.92-.77-11.88-.15-2.45-.38-4.91-.32-7.36.05-2.4-.18-5.16,2.87-6.14,4.04-1.3,6.84-1.41,9.23,1.67,4.05,5.23,8.22,10.36,12.34,15.54.64.8,1.29,1.59,2.2,2.71.94-1.15,1.75-2.13,2.55-3.12,2.84-3.54,5.9-6.93,8.46-10.66,3.75-5.44,9.32-7.71,15.21-9.74,3.41,11.2-3.09,20.08-6.71,29.65,7.39,1.4,15.17-1.72,22.04,2.92-.91,2.71-2.31,4.63-4.71,5.94-8.78,4.81-17.5,9.73-26.24,14.61-.89.5-1.73,1.08-2.99,1.88,3.22,2.01,6.18,3.77,9.05,5.66,4.33,2.86,8.83,5.54,12.82,8.83,2.7,2.24,4.82,5.27,6.87,8.18,1.7,2.41.57,4.67-2.41,4.77-1.64.06-3.43-.75-4.96-1.53-7.91-4.01-15.75-8.14-23.62-12.22-.14-.07-.36.01-.73.03-.8,8.13-1.57,16.29-2.43,24.43-.91,8.64-1.87,17.27-2.88,25.9-.08.66-.53,1.51-1.07,1.84-1.83,1.1-3.78,2-5.89,3.07-3.43-12.43-6.76-24.5-10.23-37.12-1.95,3.12-3.67,5.89-5.4,8.65-1.15,1.84-2.44,3.62-3.42,5.54-2.88,5.65-7.71,6.82-14.28,5.64-1.01-.18-2-.59-2.94-1.01-6.18-2.78-7.63-7.45-4.31-13.37,2.49-4.44,4.85-8.95,7.24-13.44.39-.74.66-1.54.85-2Z"/>
  </g>
</svg>