<?xml version="1.0" encoding="UTF-8"?>
<svg id="Camada_2" data-name="Camada 2" xmlns="http://www.w3.org/2000/svg" viewBox="0 0 134 90.57">
  <defs>
    <style>
      .cls-1 {
        fill: #c95127;
      }
    </style>
  </defs>
  <g id="Layer_1" data-name="Layer 1">
    <g>
      <path class="cls-1" d="M124.6,81.87l-2.94,7.71c-1.56.29-3.18.49-4.77.57-28.04,1.38-56.66-1.05-84.69-1.11-6.02-.01-20.98,1.65-25.7-.71S.87,75.8.43,71.15C-1.6,49.55,4.11,27.15,6.56,5.75c1.16-2.51,3.92-3.01,6.42-3.19,4.47-.32,9.39-.02,13.96-.22,6.2-.28,12.38-.99,18.58-1.34,27.81-1.54,55.7-1.34,83.5.89,2.81.64,4.69,2.02,4.94,5s-.6,9.19-.94,12.29c-1.95,17.51-5.18,34.92-6.68,52.49l-1.74,10.19ZM126.95,6.84c-32.3-2.97-64.84-2.98-97.2-1.51-4.31.2-9.59.13-13.76.68-.45.06-.9.11-1.32.31l48.79,58.8c.39.05,5.54-4.09,6.3-4.72,6.65-5.48,11.86-11.44,17.96-17.38,9.46-9.22,19.56-17.89,29.19-26.97,3.3-3.11,6.75-6.07,10.03-9.2ZM117.09,75.73c.17-.31.38-.46.47-.83.46-1.93.3-5.39.54-7.56.74-6.9,1.92-13.71,3.04-20.54,1.96-11.94,4.38-23.83,6.12-35.8-6.76,6.12-12.96,12.83-19.55,19.13-2.18,2.08-6.43,5.17-8.08,7.24-1.21,1.52-.55,3.03-.19,4.73.54,2.52,1.88,8.02,2.86,10.23,1.1,2.48,3.62,6.03,5.13,8.48,3.11,5.04,6.46,9.95,9.67,14.93ZM37.65,39.94L12.24,10.06l-3.89,38,.52,36.39c.27.57,1.25-.97,1.39-1.18,2.24-3.4,3.97-7.85,5.99-11.48,2.86-5.16,6.2-9.42,9.51-14.24,4-5.84,8.08-11.63,11.9-17.59ZM116.96,83.83c-9.19-12.29-18.95-24.16-27.62-36.84-2.5,2.37-4.58,5.15-7.01,7.59-3.78,3.8-12.2,11.86-16.54,14.44-4.71,2.8-6.53-2.18-9.04-5.23-5.24-6.37-10.38-12.8-15.53-19.24-8.3,14.58-17.44,28.7-27.81,41.87,5.66-.52,11.29-.92,16.97-1.04,16.61-.36,33.27.46,49.88.46,12.21,0,24.43-.17,36.63-.6l.07-1.42Z"/>
      <path class="cls-1" d="M99.12,20.96c-.41,1.56-1.23,2.7-2.14,3.98-2.8,3.91-6.53,8.1-9.71,11.75-5.14,5.91-10.59,11.84-16.21,17.23-1.49.57-2.04-.17-2.33-1.52,8.91-10.57,18.85-20.24,27.88-30.71.71-.61,1.57-1.26,2.51-.71Z"/>
      <path class="cls-1" d="M79.4,32.36c-.04,2.16-5.94,10.06-7.73,9.88-2.47-.25-.02-3.17.77-4.02.59-.64,1.3-1,1.85-1.58,1.47-1.57,2.87-4.24,5.11-4.28Z"/>
      <path class="cls-1" d="M73.74,79.64l.88-.68c6.84-.31,13.83.41,20.72.6,1.8.05,5.45-.37,6.94-.03.69.16.89.73,1.14,1.33-.28.85-1.19,1.24-2.02,1.2-6.42-.42-12.88-.44-19.28-1.06-1.26-.12-7.92-.66-8.37-1.35Z"/>
      <path class="cls-1" d="M97.74,77.47c.12.6-.52,1.17-1.13,1.25-1.1.14-5.8-.14-6.92-.37-.64-.13-1.23-.41-1.84-.64.49-.38,1.15-.64,1.74-.81,1.25-.35,7.85-.97,8.15.57Z"/>
      <path class="cls-1" d="M29.18,45.01c.09.33-1.64,3.01-1.97,3.54-2.05,3.26-5.07,8.17-7.48,11.02-.5.59-1.18,1.61-2.07.94l-.34-1.47c1.58-2.4,3.1-4.87,4.8-7.19.91-1.24,4.8-6.4,5.91-6.78.33-.12.79,0,1.16-.05Z"/>
      <path class="cls-1" d="M21.17,47.51c.15.42-2.28,5.11-2.78,5.81-1.15,1.58-2.73,1.02-2.05-.96.48-1.38,2.76-4.02,4.07-4.72.28-.15.39-.38.76-.13Z"/>
      <path class="cls-1" d="M113.57,51.38c-.17-.37.69-3.14.82-3.93.37-2.41.37-4.86.73-7.27.24-1.59,1.58-9.48,2.15-10.29,1.39-1.99,1.54-.12,1.43,1.2-.36,4.22-1.1,9.34-1.74,13.57-.21,1.43-.96,7.22-2.26,7.61-.3-.12-1.02-.66-1.13-.89Z"/>
      <path class="cls-1" d="M112.11,36.85c.37.14.89.91.94,1.34.07.61-.5,4.98-.7,5.63-.28.9-.84.89-1.6,1.24-.56-.2-.5-6.04-.29-6.82.18-.68.84-1.69,1.65-1.39Z"/>
    </g>
  </g>
</svg>