<svg width="24" height="24" viewBox="0 0 24 24" fill="none" xmlns="http://www.w3.org/2000/svg">
<g clip-path="url(#clip0_3435_1579)">
<path d="M0 11.9999C0 14.3599 0.681135 16.5599 1.84307 18.3999H22.1569C23.3189 16.5599 24 14.3599 24 11.9999C24 9.63985 23.3189 7.43985 22.1569 5.59985H1.84307C0.681135 7.43985 0 9.63985 0 11.9999Z" fill="#FFCE31"/>
<path d="M22.1972 5.6C20.0736 2.24 16.3074 0 12.0202 0C7.73308 0 3.9668 2.24 1.84326 5.6H22.1972ZM1.84326 18.4C3.9668 21.76 7.73308 24 12.0202 24C16.3074 24 20.0736 21.76 22.1972 18.4H1.84326Z" fill="#ED4C5C"/>
<path d="M2.88477 10.6799H4.1669V11.3999H2.88477V10.6799ZM2.88477 15.9599H4.20697V16.6399H2.88477V15.9599Z" fill="#C8B100"/>
<path d="M2.76445 14.8401C2.64445 14.9201 2.56445 15.0001 2.56445 15.0401C2.56445 15.0801 2.60445 15.1201 2.68445 15.1601C2.76445 15.2001 2.84445 15.2801 2.80445 15.3601C2.88445 15.2801 2.92445 15.2001 2.92445 15.1201C2.92445 15.0001 2.84445 14.8801 2.76445 14.8401Z" fill="#ED4C5C"/>
<path d="M3.08545 11.4001H4.00699V15.9601H3.08545V11.4001Z" fill="white"/>
<path d="M4.96846 13.0801C4.76813 13.0001 4.40753 12.9201 4.00686 12.9201C3.88666 12.9201 3.72639 12.9201 3.56613 12.9601C3.00519 13.0401 2.56446 13.2801 2.60452 13.4401L2.40419 13.0001C2.36412 12.8001 2.84493 12.5601 3.44593 12.4401C3.64626 12.4001 3.84659 12.4001 4.00686 12.4001C4.40753 12.4001 4.76813 12.4401 4.96846 12.5201V13.0801Z" fill="#ED4C5C"/>
<path d="M3.08527 13.6802C2.84486 13.6802 2.64453 13.6002 2.64453 13.4802C2.64453 13.4002 2.72466 13.2802 2.88493 13.2002H3.12533L3.08527 13.6802ZM4.0068 13.3202C4.16707 13.3602 4.28727 13.4002 4.3674 13.4402C4.40747 13.4802 4.2472 13.6402 4.0068 13.7602V13.3202Z" fill="#ED4C5C"/>
<path d="M2.48429 14.5602C2.44422 14.4802 2.72469 14.3202 3.08529 14.2002C3.24555 14.1602 3.36575 14.0802 3.56609 14.0002C4.04689 13.8002 4.44756 13.5202 4.36742 13.4402L4.44756 13.9202C4.48762 14.0002 4.16709 14.2402 3.68629 14.4802C3.52602 14.5602 3.24555 14.6802 3.08529 14.7202C2.80482 14.8002 2.56442 14.9602 2.56442 15.0002L2.48429 14.5602Z" fill="#ED4C5C"/>
<path d="M11.4991 10.6799H12.7812V11.3999H11.4991V10.6799ZM11.459 15.9599H12.7812V16.6399H11.459V15.9599Z" fill="#C8B100"/>
<path d="M12.9012 14.8401C13.0212 14.9201 13.1012 15.0001 13.1012 15.0401C13.1012 15.0801 13.0612 15.1201 12.9812 15.1601C12.9012 15.2401 12.8212 15.3601 12.8612 15.4001C12.7812 15.3201 12.7412 15.2401 12.7412 15.1601C12.7412 15.0001 12.8212 14.8801 12.9012 14.8401Z" fill="#ED4C5C"/>
<path d="M11.6597 11.4001H12.5812V15.9601H11.6597V11.4001Z" fill="white"/>
<path d="M10.6982 13.0801C10.8986 13.0001 11.2592 12.9201 11.6598 12.9201C11.78 12.9201 11.9403 12.9201 12.1006 12.9601C12.6615 13.0401 13.1022 13.2801 13.0622 13.4401L13.2625 12.9601C13.3026 12.7601 12.8218 12.5201 12.2208 12.4001H11.6598C11.2592 12.4001 10.8986 12.4401 10.6982 12.5201V13.0801Z" fill="#ED4C5C"/>
<path d="M12.5812 13.68C12.8216 13.68 13.022 13.6 13.022 13.48C13.022 13.4 12.9418 13.28 12.7816 13.2H12.5412L12.5812 13.68ZM11.6597 13.32C11.4994 13.36 11.3792 13.4 11.2991 13.44C11.259 13.48 11.4193 13.64 11.6597 13.76V13.32Z" fill="#ED4C5C"/>
<path d="M13.182 14.5601C13.222 14.4801 12.9416 14.3201 12.581 14.2001C12.4207 14.1601 12.3005 14.0801 12.1002 14.0001C11.6194 13.8001 11.2187 13.5201 11.2988 13.4401L11.2187 13.9201C11.1786 14.0001 11.4992 14.2401 11.98 14.4801C12.1402 14.5601 12.4207 14.6801 12.581 14.7201C12.8614 14.8001 13.1018 15.0001 13.0618 15.0401L13.182 14.5601ZM7.81303 8.12012C8.5743 8.12012 10.1369 8.28012 10.6978 8.84012C10.0968 10.2801 9.13523 9.68012 7.81303 9.68012C6.53089 9.68012 5.52922 10.2801 4.92822 8.84012C5.48916 8.28012 7.01169 8.12012 7.81303 8.12012Z" fill="#ED4C5C"/>
<path d="M9.77616 9.72015C9.29536 9.44015 8.57416 9.40015 7.81289 9.40015C7.05162 9.40015 6.33042 9.48015 5.84962 9.72015L6.00989 10.4001C6.45062 10.5201 7.09169 10.6001 7.81289 10.6001C8.53409 10.6001 9.13509 10.5201 9.6159 10.4001L9.77616 9.72015ZM10.4573 8.00015C10.297 7.88015 9.9765 7.76015 9.69603 7.76015C9.57583 7.76015 9.45563 7.76015 9.33543 7.80015C9.33543 7.80015 9.09503 7.48015 8.53409 7.48015C8.33376 7.48015 8.17349 7.52015 8.01322 7.60015V7.56015C7.97316 7.48015 7.89302 7.40015 7.81289 7.40015C7.73276 7.40015 7.61256 7.52015 7.61256 7.60015V7.64015C7.45229 7.56015 7.29202 7.52015 7.09169 7.52015C6.53075 7.52015 6.29035 7.88015 6.29035 7.84015C6.17015 7.80015 6.04995 7.80015 5.92975 7.80015C4.08668 7.80015 5.00822 9.04015 5.00822 9.04015L5.20855 8.80015C4.76782 8.24015 5.16848 7.92015 5.96982 7.92015C6.09002 7.92015 6.17015 7.92015 6.25029 7.96015C5.96982 8.36015 6.49069 8.72015 6.49069 8.72015L6.61089 8.52015C6.33042 8.32015 6.29035 7.64015 7.09169 7.64015C7.29202 7.64015 7.45229 7.68015 7.61256 7.80015C7.61256 7.84015 7.57249 8.40015 7.53242 8.48015L7.85296 8.76015L8.17349 8.48015C8.13342 8.36015 8.09336 7.84015 8.09336 7.80015C8.21356 7.72015 8.41389 7.64015 8.61423 7.64015C9.45563 7.64015 9.45563 8.32015 9.09503 8.52015L9.21523 8.72015C9.21523 8.72015 9.65596 8.36015 9.45563 7.96015C9.53576 7.96015 9.65596 7.92015 9.7361 7.92015C10.6977 7.92015 10.7378 8.64015 10.4974 8.80015L10.6576 9.04015C10.5775 9.04015 11.0182 8.48015 10.4573 8.00015Z" fill="#C8B100"/>
<path d="M7.57275 7.24C7.57275 7.12 7.69275 7 7.81275 7C7.97275 7 8.05275 7.12 8.05275 7.24C8.05275 7.36 7.93275 7.48 7.81275 7.48C7.69275 7.48 7.57275 7.36 7.57275 7.24Z" fill="#005BBF"/>
<path d="M7.73275 6.56006V6.68006H7.61275V6.80006H7.73275V7.20006H7.57275V7.32006H8.05275L8.09275 7.24006L8.05275 7.20006H7.89275V6.80006H8.01275V6.68006H7.89275V6.56006H7.73275Z" fill="#C8B100"/>
<path d="M7.81266 10.5201C7.17159 10.5201 6.61066 10.4401 6.16992 10.3201C6.61066 10.2001 7.17159 10.1201 7.81266 10.1201C8.45373 10.1201 9.01466 10.2001 9.4554 10.3201C9.05473 10.4401 8.45373 10.5201 7.81266 10.5201Z" fill="#ED4C5C"/>
<path d="M7.85307 17.4399C7.0918 17.4399 6.3706 17.2399 5.72953 16.9599C5.24873 16.7199 4.96826 16.2799 4.96826 15.7599V13.8399H10.7379V15.7599C10.7379 16.2799 10.4173 16.7599 9.97661 16.9599C9.33554 17.2799 8.61434 17.4399 7.85307 17.4399ZM7.813 10.6399H10.6978V13.8399H7.813V10.6399Z" fill="white"/>
<path d="M7.85307 15.7601C7.85307 16.5201 7.212 17.1201 6.41067 17.1201C5.60933 17.1201 4.96826 16.5201 4.96826 15.7601V13.8401H7.85307V15.7601Z" fill="#ED4C5C"/>
<path d="M5.56929 16.88C5.64942 16.92 5.76962 17 5.92989 17.04V13.76H5.60936L5.56929 16.88ZM4.92822 15.72C4.92822 16.12 5.08849 16.44 5.24876 16.6V13.76H4.92822V15.72Z" fill="#C8B100"/>
<path d="M6.20996 17.12H6.52996V13.76H6.20996V17.12Z" fill="#C7B500"/>
<path d="M6.85156 17.04C6.97156 17 7.13156 16.92 7.21156 16.88V13.76H6.89156L6.85156 17.04Z" fill="#C8B100"/>
<path d="M4.92822 10.6399H7.81303V13.8399H4.92822V10.6399Z" fill="#ED4C5C"/>
<path d="M7.53271 16.6C7.69271 16.48 7.81272 16.2 7.85272 15.88V13.8H7.53271V16.6Z" fill="#C8B100"/>
<path d="M10.7379 13.8399V15.7599C10.7379 16.5199 10.0968 17.1199 9.29549 17.1199C8.49415 17.1199 7.85308 16.5199 7.85308 15.7599V13.8399H10.7379ZM9.69615 11.1999C9.81636 11.4399 9.81636 12.0399 9.45575 11.9199C9.53589 11.9599 9.57595 12.2399 9.69615 12.3999C9.89649 12.6399 10.1369 12.4399 10.0968 12.1599C10.0167 11.7199 10.0568 11.4399 10.1369 10.9999C10.1369 11.0399 10.3372 11.0399 10.4174 10.9599C10.3773 11.0799 10.3372 11.2399 10.4174 11.2399C10.3372 11.3599 10.1369 11.5599 10.0968 11.6799C10.0568 11.9599 10.4975 12.4799 10.0167 12.5999C9.69615 12.6799 9.89649 12.9199 10.0167 13.0399C10.0167 13.0399 9.85642 13.5599 9.93655 13.5199C9.61602 13.6399 9.69615 13.3599 9.69615 13.3599C9.85642 12.8799 9.41569 12.8399 9.45575 12.7599C9.05509 12.7199 9.49582 13.1199 9.13522 13.1199C9.05509 13.1199 8.89482 13.1999 8.89482 13.1999C8.45408 13.1599 8.69449 12.7599 8.85475 12.7999C8.97495 12.8399 9.09515 13.0399 9.09515 12.7599C9.09515 12.7599 8.89482 12.4399 9.41569 12.4399C9.21535 12.4399 9.09515 12.2799 9.01502 12.0799C8.93489 12.1199 8.81469 12.3199 8.37395 12.3599C8.37395 12.3599 8.25375 11.9199 8.37395 11.9999C8.53422 12.0799 8.61435 12.0799 8.77462 11.9199C8.69449 11.7999 8.21368 11.6399 8.29382 11.3599C8.29382 11.2799 8.53422 11.1599 8.53422 11.1599C8.49415 11.3599 8.61435 11.5599 8.85475 11.5599C9.17529 11.5999 9.05509 11.4799 9.09515 11.3999C9.13522 11.3199 9.37562 11.4399 9.29549 11.2399C9.29549 11.1999 9.01502 11.1599 9.09515 11.0399C9.25542 10.8399 9.49582 10.9999 9.69615 11.1999ZM7.85308 17.0399L7.77295 16.8399L7.85308 16.5999L7.93322 16.8399L7.85308 17.0399Z" fill="#ED4C5C"/>
<path d="M5.80974 11.32V11.52H5.88987V11.68H5.68954V12.08H5.80974V12.96H5.56934V13.4H7.21207V12.96H7.01174V12.08H7.09187V11.68H6.89154V11.52H7.01174V11.32H6.61107V11.52H6.69121V11.68H6.49087V11.2H6.61107V11H6.17034V11.2H6.29054V11.68H6.0902V11.52H6.17034V11.32H5.80974ZM10.3373 16.24V14.24H8.25381V16.24L9.21541 16.68H9.33561L10.3373 16.24ZM9.21541 14.4V15.08L8.53428 14.4H9.21541ZM8.37401 14.44L9.17535 15.24L8.37401 16.04V14.44ZM8.45414 16.2L9.21541 15.44V16.56L8.45414 16.2ZM9.33561 16.52V15.4L10.0969 16.16L9.33561 16.52ZM10.177 16.04L9.37568 15.24L10.177 14.44V16.04ZM9.33561 14.4H10.0167L9.33561 15.08V14.4Z" fill="#C8B100"/>
<path d="M6.8916 13.8C6.8916 13.2 7.29227 12.76 7.81314 12.76C8.33401 12.76 8.73467 13.24 8.73467 13.8C8.73467 14.36 8.33401 14.84 7.81314 14.84C7.29227 14.84 6.8916 14.4 6.8916 13.8Z" fill="#ED4C5C"/>
<path d="M7.17139 13.8C7.17139 13.36 7.45185 13.04 7.81246 13.04C8.17306 13.04 8.45352 13.4 8.45352 13.8C8.45352 14.24 8.17306 14.56 7.81246 14.56C7.49192 14.6 7.17139 14.24 7.17139 13.8Z" fill="#005BBF"/>
<path d="M7.53234 13.28L7.37207 13.72L7.49227 13.76L7.41214 13.92H7.65254L7.5724 13.76L7.69261 13.72L7.53234 13.28ZM8.13334 13.28L7.97307 13.72L8.09327 13.76L8.01314 13.92H8.25354L8.21347 13.76L8.33367 13.72L8.13334 13.28ZM7.85287 13.8L7.65254 14.24L7.77274 14.28L7.73267 14.44H7.93301L7.89294 14.28L8.01314 14.24L7.85287 13.8Z" fill="#C8B100"/>
</g>
<defs>
<clipPath id="clip0_3435_1579">
<rect width="24" height="24" fill="white"/>
</clipPath>
</defs>
</svg>
