<?xml version="1.0" encoding="UTF-8"?>
<svg id="Camada_2" data-name="Camada 2" xmlns="http://www.w3.org/2000/svg" viewBox="0 0 39.58 48">
  <defs>
    <style>
      .cls-1 {
        fill: #411d13;
      }
    </style>
  </defs>
  <g id="Layer_1" data-name="Layer 1">
    <g>
      <path class="cls-1" d="M23.07,4.84c-4.36-1.28-10.66,1.31-13.59,4.44-2.9,3.11-4.53,7.15-4.59,11.39-.05,4.26,1.49,8.33,4.35,11.48.64.71,1.22,1.08,1.82,1.48.35.23.7.46,1.08.77.93.74,1.05,1.6,1.2,2.6.05.34.1.7.19,1.07-.3.34-.61.73-.63,1.32-.01.5.23.97.44,1.39.15.29.29.56.31.78.03.26-.1.46-.24.69-.24.39-.54.88-.07,1.74.21.38.46.51.7.64.13.07.25.13.37.24.07.06.14.15.21.25.1.13.2.28.35.4,1.84,1.54,3.13,2.37,3.85,2.46.19.02.45.04.79.04s.72-.01,1.2-.04c.13,0,.28-.05.45-.09.18-.05.38-.1.52-.1.21,0,.37.01.51.02.46.04.72.04,1.35-.42.85-.63,3.74-4.46,4.17-5.53.32-.8-.03-1.24-.31-1.59-.16-.2-.3-.38-.31-.6-.01-.23.08-.47.17-.73.11-.3.22-.6.19-.93-.05-.56-.38-.99-.98-1.32.09-.51-.06-1.22-.21-1.91-.13-.61-.27-1.25-.18-1.55.09-.15,1-.51,1.48-.69.37-.14.68-.27.85-.35,4.84-2.64,6.38-10.42,5.64-15.02-1.09-6.76-4.31-10.33-11.09-12.32ZM17.7,45.07c2.12.05,4.3.11,6.4-.34-.08.11-.17.23-.26.35-.42.57-.89,1.21-1.42,1.28-.72.09-1.57.08-2.39.07-.27,0-.52,0-.77,0-.19,0-.38,0-.56,0l-2.08-1.37c.36,0,.73.02,1.09.03ZM18.17,43.64h-.39c-1.58.01-2.79-.1-3.01-.29-.2-.17-.09-.38.18-.8.08-.12.16-.25.22-.38.73.37,1.58.34,2.34.31.54-.02,1.38-.1,1.95-.22.18-.04.5-.11.49-.34-.02-.3-.8-.39-1.04-.41-.36-.03-.71-.03-1.04-.03-.94,0-1.75,0-2.55-.64-.96-.78-1.13-1.22-1.14-1.42,0-.06,0-.12.03-.17.15.05.3.1.45.17.27.11.55.22.88.26.91.09,2.22.16,3.08.19,2.34.09,5,.02,7.17-1.07l-.11.49c-.42.22-.81.49-1.19.76-.57.41-1.12.8-1.76.98l-.09.03-.02.09c-.04.19.01.32.07.39.16.21.5.26.68.27.62.03,1.2-.36,1.77-.73.25-.16.48-.32.71-.43l.56.64c-.1.15-.6.47-.85.62-.21.13-.38.24-.47.32-.12.11-.23.25-.31.36-.08.11-.16.21-.24.28-.92.74-4.72.75-6.35.76ZM16.69,20.8c0-.12.02-.22.06-.3-.01.09-.03.2-.06.3ZM16.35,23.37c.6.64,1.33.96,2.13.96.98,0,1.99-.52,2.79-1.41,1.17.69,2.47.58,3.43-.3.09-.08.17-.19.25-.3l-2.75,10.48-.95,5.54-3.24-.09s0-.09,0-.14c0-.13,0-.27-.03-.41-.25-1.3-.6-2.74-.91-4.01l-.02-.09c-.8-3.27-1.79-6.59-2.95-9.87.84.14,1.57.02,2.27-.37ZM24.7,34.42c.05.29.11.59.14.89.02.22.01.46,0,.69,0,.17,0,.34,0,.5,0,.12.03.24.06.35.05.2.08.37,0,.55-.11.23-1.17.44-1.8.57-.33.07-.63.12-.86.19.9-4.1,1.96-8.82,3.24-13.39.06-.23.16-.5.26-.78.39-1.1.87-2.46.27-3.35-.13-.2-.3-.31-.49-.33-.4-.04-.78.33-1.08.62l-.1.1c-.16.15-.29.29-.41.43-.49.54-.78.86-1.74.53-.43-.15-.41-.24-.34-.57.04-.18.08-.4.06-.67-.05-.49-.53-1.72-1.15-1.89-.18-.05-.45-.03-.71.33-.53.76-.14,2.27.25,2.99-.59.6-1.33.97-1.97.97-.44,0-.83-.18-1.16-.51.03-.09.15-.27.22-.38.08-.12.16-.24.2-.34.22-.52.44-1.52.15-2.17-.12-.27-.32-.45-.59-.54-.45-.15-.75,0-.91.17-.63.59-.58,2.16-.44,2.81-.4.44-1.28.63-1.8.25-.19-.14-.32-.45-.46-.75-.22-.5-.49-1.12-1.13-.93l-.15.04.04.15c.04.16-.04.28-.13.43-.07.12-.15.24-.16.39-.03.33.23.96.58,1.74.11.25.22.49.27.64.88,2.47,1.71,5.16,2.59,8.46.17.62.31,1.26.45,1.87.28,1.24.57,2.51,1.05,3.72-.18,0-.36,0-.55.02-.29.02-.58.03-.81,0-.64-.11-.67-.59-.65-1.37,0-.21.01-.4,0-.58-.23-2.37-1.12-2.94-2.34-3.73-.4-.26-.86-.55-1.34-.95-5.32-4.33-6.35-13.3-2.19-19.2,2.71-3.86,7.42-6.3,11.99-6.23,1.25.02,4.65,1.47,5.8,2.1,2.58,1.41,4.45,4.07,5.26,7.49,1.03,4.36.23,9.3-2.05,12.6-1.06,1.53-1.86,1.91-3.08,2.48-.37.17-.78.37-1.25.62-1.43.76-1.23,1.81-1.03,2.93Z"/>
      <path class="cls-1" d="M39.58,20.33c-.09-.49-.65-1.01-1.49-1.38-.62-.27-1.5-.49-1.95-.2-.18.11-.27.26-.29.43-.02.35.31.66.63.93.64.54,1.51,1.15,2.21,1.15.07,0,.14,0,.21-.02.29-.06.51-.23.67-.52l.02-.03v-.35Z"/>
      <path class="cls-1" d="M16.21,4.55v.07s.08.04.08.04c.21.13.41.19.58.19.12,0,.23-.03.32-.09.49-.3.48-1.29.43-1.86-.03-.34-.4-2.11-.56-2.4-.15-.28-.46-.48-.78-.5-.27-.02-.51.09-.66.29-.55.74-.13,1.98.24,3.07.15.45.3.87.35,1.19Z"/>
      <path class="cls-1" d="M.85,15.78h0c-.23,0-.5.16-.67.37-.1.13-.16.28-.16.43,0,.34.21.67.6.97.74.57,2.02.94,2.83.94.15,0,.29-.01.4-.04.27-.06.48-.28.55-.56.07-.29-.02-.58-.24-.76-.28-.23-2.92-1.35-3.31-1.35Z"/>
      <path class="cls-1" d="M28.84,5.64s.01,0,.02,0c.31,0,.41-.1.49-.22.02-.03.03-.04.05-.05.45-.29,1.95-1.27,2.24-1.83.24-.46.21-1.09-.3-1.35-.49-.25-1.09.13-1.28.25-.31.2-1.58,1.44-1.79,1.75-.26.39-.33.81-.17,1.09.09.17.29.36.74.36Z"/>
      <path class="cls-1" d="M37.06,28.49s-1.2-.76-1.62-.64c-.14.04-.26.15-.34.3-.11.21-.14.51-.07.73.06.18,1.24,1.46,1.35,1.56.32.28.8.56,1.25.56.02,0,.05,0,.07,0,.24-.02.44-.11.59-.29.17-.2.25-.43.21-.67-.09-.62-.87-1.18-1.44-1.55Z"/>
      <path class="cls-1" d="M6.22,9.57c.11.07.46.21.76.21.14,0,.26-.03.34-.12.36-.38-.13-1.24-.39-1.7l-.04-.08c-.14-.24-.79-1.3-1-1.49-.42-.39-.9-.33-1.2-.09-.35.28-.53.84-.15,1.49.16.28,1.4,1.6,1.68,1.78Z"/>
      <path class="cls-1" d="M37.06,11.38c.84-.16,1.62-.88,1.54-1.43-.03-.24-.24-.61-1.26-.51-.03,0-2.52.31-2.71,1-.06.23-.01.43.13.59.3.32.98.41,1.54.41.32,0,.6-.03.75-.06Z"/>
      <path class="cls-1" d="M3.63,26.26c-.3-.25-.82-.37-1.18-.36h0c-.06,0-.13,0-.21.02,0,0,0,0,0,0-.01,0-.03,0-.04,0-.61.1-1.77.44-2.1.98-.12.19-.13.39-.04.59.17.37.76.56,1.14.56,0,0,.02,0,.03,0,.35,0,2.07-.6,2.32-.79.36-.29.37-.55.31-.71-.04-.11-.12-.21-.22-.29Z"/>
      <path class="cls-1" d="M27.38,16.8c.6-.88,1.42-3.61.6-4.51-.08-.09-.19-.21-.41-.17l-.15.03.03.15c.08.4.11.76.09,1.13-.03.61-.5,2.22-.78,2.77l-.03.06s-.04.09-.06.12c-.11-.14-.35-.66-.5-.99-.13-.28-.24-.52-.31-.63-.8-1.29-1.76-1.7-2.78-2.14-.5-.22-1.03-.44-1.56-.78-.18-.12-.43-.28-.44-.41,0-.07.07-.17.21-.29.36-.29,1.8-.88,2.3-.94,1.5-.18,2.36.17,3.07,1.25.17.26.38.28.51.22.13-.06.25-.24.16-.55-.37-1.26-2.34-1.89-3.58-1.79-.87.07-3.1.88-3.37,1.9-.08.29-.03.72.6,1.16.54.37,1.11.61,1.66.85.99.43,1.93.83,2.59,1.88.07.11.17.33.26.56.29.68.66,1.53,1.19,1.58.02,0,.03,0,.05,0,.23,0,.45-.15.66-.46Z"/>
      <path class="cls-1" d="M28.22,21.07c.19.24.47.38.78.39.02,0,.03,0,.05,0,.32,0,.64-.14.87-.37.52-.54.2-1.52-.03-1.97l-1.09-1.03.05.43c.02.15.09.36.19.64.18.5.48,1.33.16,1.46-.28.11-.39,0-.43-.03-.27-.24-.28-.94-.17-1.3l.02-.08-.06-.07c-.1-.12-.25-.13-.36-.04-.29.24-.45,1.36.02,1.96Z"/>
      <path class="cls-1" d="M10.18,21.48v-.17s-.17.01-.17.01c-.03,0-.06,0-.1,0-.07,0-.15-.01-.23.01.05-.06.11-.12.16-.18.27-.3.56-.61.75-.98l.03-.05-.11-.42-.55-.12-.06.09c-.16.23-.38.43-.6.62-.08.07-.16.14-.24.22.13-.14.24-.35.37-.57.18-.31.4-.69.58-.72l.17-.02-.11-.59-.06-.04c-.39-.25-.92.11-1.26.5-.41.48-.68,1.14-.33,1.55l.03.03c.08.06.17.08.23.08.03,0,.06,0,.08,0,.08-.02.14-.06.21-.11-.08.08-.15.15-.22.23-.16.2-.51.71-.43,1.09.03.14.11.24.24.31.08.04.15.06.22.06.04,0,.08,0,.12-.02-.27.38-.52.75-.51.85,0,.18.1.33.24.4.06.03.11.04.17.04.09,0,.17-.03.25-.08.55-.38,1.14-1.21,1.14-2Z"/>
      <path class="cls-1" d="M11.44,26.35c.05-.25-.02-.41-.09-.49-.07-.08-.2-.17-.44-.16h-.07s-.05.06-.05.06c0,.01-.9,1.21-.73,1.75.04.12.12.21.25.25.06.02.12.03.18.03.14,0,.27-.06.36-.17.02-.03.11-.19.2-.39-.03.09-.07.19-.11.31-.17.44-.37.93-.15,1.19.08.09.2.14.36.14.07,0,.14,0,.22-.03l.1-.02.44-1.86-.77.09c.15-.32.31-.66.32-.71Z"/>
      <path class="cls-1" d="M10.07,23l-.03-.07-.07-.02c-.24-.06-.34.08-.38.15-.01.02-.02.03-.03.04-.16.16-.67.69-.67,1.05,0,.09.03.17.09.23l.03.03h.05c.06.02.11.02.16.02.27,0,.51-.12.69-.35.25-.31.31-.75.15-1.09Z"/>
    </g>
  </g>
</svg>