<svg width="4" height="358" viewBox="0 0 4 358" fill="none" xmlns="http://www.w3.org/2000/svg">
<path d="M2.75 -1.20206e-07C2.25 -9.83506e-08 1.75 -7.64949e-08 1.25 -5.46392e-08C1.16667 5.96667 1.0875 11.9333 1.0125 17.9C0.337503 71.6 5.47704e-06 125.3 7.82434e-06 179C1.01716e-05 232.7 0.337513 286.4 1.01251 340.1C1.08752 346.067 1.16668 352.033 1.25002 358C1.75002 358 2.25002 358 2.75002 358C2.83335 352.033 2.91252 346.067 2.98751 340.1C3.66251 286.4 4.00001 232.7 4.00001 179C4.00001 125.3 3.6625 71.6 2.9875 17.9C2.9125 11.9333 2.83333 5.96667 2.75 -1.20206e-07Z" fill="#AD8A6C" fill-opacity="0.5"/>
</svg>
