<svg width="48" height="48" viewBox="0 0 48 48" fill="none" xmlns="http://www.w3.org/2000/svg">
<g clip-path="url(#clip0_3290_438)">
<path d="M44.142 0H3.858C1.728 0 0 1.728 0 3.858V44.142C0 46.272 1.728 48 3.858 48H44.142C46.272 48 48 46.272 48 44.142V3.858C48 1.728 46.272 0 44.142 0ZM44.142 44.16C17.274 44.154 3.84 44.148 3.84 44.142C3.846 17.274 3.852 3.84 3.858 3.84C30.726 3.846 44.16 3.852 44.16 3.858C44.154 30.726 44.148 44.16 44.142 44.16ZM7.116 17.994H14.238V40.902H7.116V17.994ZM10.68 14.862C12.954 14.862 14.808 13.014 14.808 10.734C14.808 10.1919 14.7012 9.65511 14.4938 9.15428C14.2863 8.65345 13.9823 8.19838 13.5989 7.81506C13.2156 7.43174 12.7605 7.12768 12.2597 6.92022C11.7589 6.71277 11.2221 6.606 10.68 6.606C10.1379 6.606 9.60112 6.71277 9.10028 6.92022C8.59945 7.12768 8.14438 7.43174 7.76106 7.81506C7.37774 8.19838 7.07368 8.65345 6.86623 9.15428C6.65877 9.65511 6.552 10.1919 6.552 10.734C6.546 13.014 8.394 14.862 10.68 14.862ZM25.818 29.568C25.818 26.58 26.388 23.688 30.09 23.688C33.738 23.688 33.792 27.102 33.792 29.76V40.902H40.908V28.338C40.908 22.17 39.576 17.424 32.37 17.424C28.908 17.424 26.586 19.326 25.632 21.126H25.536V17.994H18.702V40.902H25.818V29.568Z" fill="#c95127"/>
</g>
<defs>
<clipPath id="clip0_3290_438">
<rect width="48" height="48" fill="white"/>
</clipPath>
</defs>
</svg>
