<?xml version="1.0" encoding="UTF-8"?>
<svg id="Camada_2" data-name="Camada 2" xmlns="http://www.w3.org/2000/svg" viewBox="0 0 37.73 48">
  <defs>
    <style>
      .cls-1 {
        fill: #411d13;
      }
    </style>
  </defs>
  <g id="Layer_1" data-name="Layer 1">
    <g>
      <path class="cls-1" d="M35.31,12.32c1.52.88,2.12,2.07,1.36,3.77-.12.26-.36.49-.4.76.04.15.84.57,1.03.77.96,1.02.14,2.09-.66,2.87.05.29.29.5.34.81.15.9-.67,1.37-1.22,1.91.39.93.67,1.85-.2,2.61-.2.17-1.07.61-1.1.66-.09.15-.01.49-.04.69-.06.45-.48.95-.95,1.01-.09.11.28,1.24.34,1.45,1.14,3.77,2.59,7.44,3.45,11.3.21.93.56,2.26.39,3.19-.07.37-.42.75-.79.83-.96.23-1.86-.89-2.03-.85-.57,1.01-1.53,1.02-2.36.29-.11.02-.23,1.26-1.18,1.26-.68,0-1.22-.59-1.73-.96-.27.78-.68,2.63-1.66,2.73-.77.08-1-.41-1.27-1.01-.94-2.82-2.05-5.59-3.04-8.39-.47-1.31-.83-2.79-1.32-4.06-.08-.2-.16-.41-.33-.55-.58.67-.87,1.21-1.88,1-.34-.07-.72-.51-.97-.47-.1.01-.61.32-.71.4-.87.66-1.04,1.65-1.47,2.59-1.25,2.72-2.71,5.59-4.2,8.18-.43.75-1.33,2.43-2.1,2.77-1.07.47-1.78-.61-1.82-1.56-1.6.79-2.13-.61-2.36-1.92-1.66.9-2.47.14-2.43-1.62-.07-.07-1.53.69-1.77.77-3.5,1.26-1.97-2.18-1.29-3.87,1.5-3.7,3.55-7.14,5.27-10.73-1.1-.26-.89-1.21-1.04-2.09-.67-.03-1.68.14-2.09-.53-.27-.43-.08-1.56.03-2.06-1.94-.21-1.49-1.55-.67-2.76-.59-.46-1.09-.99-.72-1.77.07-.15.28-.35.29-.45s-.29-.55-.35-.76c-.21-.75-.1-1.23.55-1.67-.97-1.24-.06-2.55,1.27-2.84-.78-1.4-.02-2.57,1.47-2.8-.14-.77-.52-1.48-.03-2.2.39-.58,1.12-.67,1.69-.96.11-.6-.1-1.42.44-1.84.47-.37,1.1-.33,1.65-.45-.14-.89-.13-1.99.84-2.37.78-.31,1.74-.04,2.55-.07.13-.5.05-1.18.46-1.57.67-.63,2.04.05,2.13-.04.17-1.51.94-1.94,2.38-1.53.36.1,1.07.52,1.35.5s.6-.49.95-.6c1.09-.35,1.82.4,2.51,1.11,1.22-1.46,2.5-.75,3.55.43,1.99-1.09,2.73.2,3.64,1.74,1.05.11,2.2-.38,2.89.72.22.34.38,1.3.5,1.41.22.21.8.16,1.13.27,1.32.47,1.01,2.62.57,3.64l.12.1c1.11.07,1.66.67,1.48,1.8-.06.37-.32.66-.42,1.01ZM10.47,5.07c-.07.22,0,1.29,0,1.62,0,.07-.23.44-.3.52-.47.5-1.15.41-1.77.41.21,1.59-.53,2.01-1.89,2.43-.04.06.31,1.09.33,1.3.08.98-1.03,1.54-1.84,1.72.07.33.32.59.36.93.12.99-.9,1.52-1.69,1.8.57.9.68,1.75-.21,2.48.29.65.63,1.2.22,1.9.99.61.74,1.56.14,2.37,1.17.48,1.17,1.48.81,2.54,1.32.02,2.46.47,2.36,1.99.25-.12.71-.06.98.02.94.28.6,1.88.79,2.01.91-.16,1.92-.05,2,1.06,1.16-.15,1.95.23,2.21,1.4.92-.45,1.85-.3,2.21.74.5-.33,1.35-.44,1.87-.14.18.11.43.5.6.5.84-.54,1.68-.87,2.58-.22.36-.28.65-.83,1.18-.89.81-.1,1.33.29,2.06.52.46-.72,1.33-1.02,2.11-.6,0-.48.5-1.18,1-1.18h1.73c0-.56-.31-1.25.22-1.66.06-.05.29-.18.34-.18h1.29c-.22-1.55,1.06-1.58,2.2-1.78.04-.27-.03-.56.01-.84.12-.78,1.96-1.2,1.98-1.4-.84-1.29-.82-2.25.66-2.92-.14-.51-.47-.8-.34-1.41.11-.54,1.05-1.18,1.09-1.35.03-.13-.88-.59-1.06-.78-.4-.41-.5-.82-.36-1.38.13-.51.99-1.6.88-2.01-.12-.44-1.36-1-1.63-1.62-.25-.57-.13-1.29.26-1.77-.68.05-1.34-.33-1.54-1-.26-.86.53-1.92.44-2.84-1.37.13-2.12-.97-2.21-2.21-.73-.09-1.69.04-2.36-.26-.76-.35-1.02-1.18-1.4-1.85-.46.04-.83.37-1.31.39-.85.05-1.46-.73-2.04-1.24-.52.44-.94,1.04-1.7.96-.62-.06-1.26-1-1.8-1.3-.18-.03-.57.47-.76.57-.84.44-1.92-.31-2.7-.6-.22,1.57-1.02,2.3-2.58,1.55.05.56-.2,1.39-.71,1.68-.7.41-1.71-.14-2.43-.14-.09,0-.23.02-.25.11ZM35.75,42.49c-.95-4.49-2.57-8.81-3.91-13.2l-.28.57c-.32.49-.96.61-1.49.46-.02.56,0,1.23-.56,1.54s-1.54.18-2.19.32c-.13.04-.21.5-.35.68-.47.58-1.34.58-1.99.38l-.94.72,3.68,10.31c.19.02.12,0,.15-.11.57-1.94,1.43-2.23,2.95-.78.25-1.53,1.55-1.81,2.54-.66.6-.98,1.58-.91,2.39-.22ZM9.13,30.92c-.36-.05-.77.05-1.12-.02-.16-.03-.66-.39-.72-.35-1.79,3.65-3.75,7.24-5.16,11.06.71-.23,1.63-1.02,2.39-.96.95.07,1.26,1.27,1.22,2.07,1.59-.88,2.37.29,2.51,1.77.73-.34,1.36-.47,1.87.3.16.24.14.51.34.66,1.6-2.95,3.27-5.89,4.66-8.95.39-.86.76-1.76,1.09-2.63-.3.07-.51.26-.82.32-.91.19-1.34-.26-1.79-.97-1.31.7-1.83-.1-2.4-1.16-.99.29-1.88-.07-2.07-1.13Z"/>
      <path class="cls-1" d="M18.34,4.17c15.29-1.31,20.25,18.19,7.12,24.6-10.05,4.9-21.61-4.1-18.4-15.09,1.42-4.87,6.16-9.07,11.28-9.51ZM19.08,5.94c-8.18.48-13.56,9.71-9.23,16.93s15.15,7.17,19.6.07c5.07-8.09-1.02-17.56-10.37-17.01Z"/>
      <path class="cls-1" d="M12.68,39.76c.41.4.07,1.06-.13,1.52s-.71,1.48-1.31.91c-.33-.31-.07-.83.06-1.2.17-.47.49-1.37,1.09-1.31-.45-.49-.09-1.09.11-1.62.18-.45,1-2.3,1.41-2.42,1.2-.36.47,1.25.28,1.75-.17.45-.85,2.07-1.19,2.28-.1.06-.21.08-.32.08Z"/>
      <path class="cls-1" d="M7.79,33.14c.35.37-.44,2.07-.7,2.47-.21.31-.48.59-.88.41-.67-.29.02-1.54.26-1.98.21-.39.78-1.46,1.32-.89Z"/>
      <path class="cls-1" d="M33.76,37.84c.78-.12,1.28,1.69.74,1.95-.86.41-1.62-1.5-.81-1.95-.15,0-.3.01-.45-.03-.43-.14-.94-1.68-1.1-2.14-.23-.64-.83-2.23-.87-2.82-.02-.35.3-.74.67-.67.39.08.72,1.13.87,1.5.44,1.12.75,2.3,1.24,3.41.09.33-.09.52-.28.75Z"/>
    </g>
  </g>
</svg>