<svg width="48" height="48" viewBox="0 0 48 48" fill="none" xmlns="http://www.w3.org/2000/svg">
<g clip-path="url(#clip0_3290_443)">
<path d="M8.42133 2.66667H39.5787C42.7573 2.66667 45.3333 5.24267 45.3333 8.42133V17.6347C43.7116 18.0579 42.2714 18.9966 41.2293 20.3093C39.9707 21.872 39.208 23.9813 39.0213 26.352C38.9822 26.8249 38.9671 27.2978 38.976 27.7707C39.0853 32.472 41.3227 36.3467 45.3333 37.2373V39.5787C45.3319 41.1045 44.7252 42.5674 43.6463 43.6463C42.5674 44.7252 41.1045 45.3319 39.5787 45.3333H8.42133C6.89553 45.3319 5.43263 44.7252 4.35373 43.6463C3.27483 42.5674 2.66808 41.1045 2.66667 39.5787V8.42133C2.66667 5.24267 5.24267 2.66667 8.42133 2.66667ZM48 8.42133C47.9986 6.18829 47.1109 4.04711 45.5319 2.46811C43.9529 0.889112 41.8117 0.00141287 39.5787 0H8.42133C6.18829 0.00141287 4.04711 0.889112 2.46811 2.46811C0.889112 4.04711 0.00141287 6.18829 0 8.42133V39.5787C0.00141287 41.8117 0.889112 43.9529 2.46811 45.5319C4.04711 47.1109 6.18829 47.9986 8.42133 48H39.5787C41.8117 47.9986 43.9529 47.1109 45.5319 45.5319C47.1109 43.9529 47.9986 41.8117 48 39.5787V8.42133ZM45.3333 19.4613V24.7493H43.6907C43.7947 22.4373 44.3653 20.536 45.3333 19.4613ZM45.3333 25.7653V31.2667C44.1573 29.8987 43.4693 27.9333 43.592 25.7653H45.3333ZM39.192 11.4667L39.232 11.4587V11.1653H31.4987L24.3253 28.0347L17.1467 11.1653H8.816V11.4587L8.85333 11.4667C10.264 11.7867 10.9813 12.2613 10.9813 13.9733V34.0267C10.9813 35.7387 10.2613 36.2133 8.848 36.5333L8.81333 36.5387V36.832H14.4667V36.5387L14.4267 36.5333C13.016 36.2133 12.2987 35.7387 12.2987 34.0267V15.136L21.52 36.8347H22.0427L31.5333 14.5307V34.52C31.4107 35.8747 30.7013 36.2933 29.424 36.5813L29.3867 36.5893V36.88H39.232V36.5867L39.192 36.5813C37.912 36.2933 37.1867 35.8747 37.0667 34.52L37.0587 13.9733H37.0667C37.0667 12.2613 37.784 11.7867 39.192 11.4667Z" fill="#c95127"/>
</g>
<defs>
<clipPath id="clip0_3290_443">
<rect width="48" height="48" fill="white"/>
</clipPath>
</defs>
</svg>
