<?xml version="1.0" encoding="UTF-8"?>
<svg id="Camada_2" data-name="Camada 2" xmlns="http://www.w3.org/2000/svg" viewBox="0 0 124.15 124">
  <defs>
    <style>
      .cls-1 {
        fill: #391b15;
      }
    </style>
  </defs>
  <g id="Layer_1" data-name="Layer 1">
    <path class="cls-1" d="M1.26,77.53l14.14-13.26L0,56.95l14.64-10.61-9.84-9.22,17.66-4.05c.97-4.42-4.98-6.76-3.77-11.1,2.36.64,6.98,2.62,9.27,1.57,3.08-1.41,2.91-10.52,4.1-13.58.32-.83.71-1.31,1.4-1.87l13.88,10.34c3.32-5.22,1.93-12.4,5.81-17.42,2.22,2.77,6.51,6.99,10.34,6.82s7.27-4.58,8.85-7.84l4.67,18.69c4.74-1.49,7.83-5.55,11.64-8.43.48-.36,3.4-2.55,3.76-2.17l2.28,17.68,13.63-5.56-6.06,16.16c1.89-.05,4.08.5,5.92.52,2.36.02,9.44-1.3,10.38,1.74,1.1,3.56-3.58,7.56-2.86,10.69.64,2.77,7.89,4.24,8.45,7.64-2.72,3.58-8.14,2.87-10.99,6.34l9.5,13.1c-1.02,1.54-2.83,2.06-4.6,2.15-2.28.12-5.89-1.07-7.08,1.76-1.87,4.44,3.21,11.31,4.17,15.66l-14.39-3.03c-.3,1.59-.61,2.75-.5,4.42.3,4.51,4.66,14.25-3.68,13.78-3.66-.21-9.32-3.62-12.83-1.49-2.39,1.45-.43,5.33-.67,7.67-.06.58-.62,2.21-1.17,2.38-.92.28-12.37-10.92-12.97-10.34l-6.57,14.65-5.43-18.69-12.48,14.54c-.91,1-1.82-.7-2.63-1.21-.6-2.5-.29-10.01-3.59-10.53-3.92-.62-10.77,3.46-13.43,2.32-.76-.33-1.2-1.45-1.3-2.23-.14-1.08-.23-2.86-.29-4.01-.2-4.4,1.6-10.21-4.89-9.45-2.49.29-4.08,2.27-6.17-.69-.1-.55,1.56-2.68,1.99-3.24,3.31-4.27,7.7-8.24,10.98-12.51.2-.25.49-.32.38-.76H1.26Z"/>
  </g>
</svg>