<?xml version="1.0" encoding="UTF-8"?>
<svg id="Camada_2" data-name="Camada 2" xmlns="http://www.w3.org/2000/svg" viewBox="0 0 48.25 47.45">
  <defs>
    <style>
      .cls-1 {
        fill: #411d13;
      }
    </style>
  </defs>
  <g id="Layer_1" data-name="Layer 1">
    <g>
      <path class="cls-1" d="M14.76,36.07c.13-.01.25-.02.37-.03.28-.04.61-.03.67-.3.04-.18-.39-.45-.72-.48-.12,0-.25,0-.37,0-.64-.02-1.28-.05-1.93-.05-.47,0-.95,0-1.41.07-.18.02-.32.21-.48.32.17.1.34.27.52.29,1.11.08,2.23.13,3.33.19Z"/>
      <path class="cls-1" d="M18.5,36.59c-.64.02-1.29.04-1.93.02-1.84-.04-3.68-.09-5.52-.12-.26,0-.53.08-.81.13.16.46.54.55,1,.59,1.14.09,2.28.2,3.42.3,1.69.14,3.39.2,5.07-.08-.02-.59-.43-.86-1.22-.84Z"/>
      <path class="cls-1" d="M47.77,18.25c-.08-.19-.19-.37-.3-.54-.09-.14-.18-.28-.24-.42l-.04-.07c-1.17-1.25-2.33-1.82-3.59-1.75-.56.03-1.16.24-1.73.45-1.32.47-2.45.87-3.18-.58-.46-.92-.29-1.9-.12-2.95.26-1.52.55-3.24-1.41-4.69-2.06-1.53-7.32-1.39-10.04.27-1.39.85-2.01,2-1.8,3.34.09.54.32,1.07.54,1.57.45,1.02.84,1.91.06,2.79-1.07,1.2-3.6,1.01-4.93.42-.61-.27-.98-.6-1.13-1.01-.27-.72.17-1.65.6-2.56.35-.75.72-1.52.7-2.22-.06-2.65-3.55-2.82-5.42-2.91h-.13c-2.13-.11-4.12.03-5.91.41l-.83.46c-1.08.95-1.01,2.17-.93,3.35.02.33.04.67.04.99-.02.9-.08,1.81-.14,2.7-.08,1.27-.17,2.58-.13,3.93.05,1.77.19,2.26.38,2.45.23.22.67.18,1.33.1.18-.02.35-.04.46-.04h0c2.41,0,3.78,1.62,3.89,3.23.09,1.29-.67,2.91-3.11,3.25-.17.02-.41,0-.67,0-.63-.04-1.35-.08-1.61.39-.1.19-.12.59-.11,1.33v.23c-.04,2.68,0,4.84.12,6.42.29,3.84,5.33,3.82,6.87,3.72.24-.01.73-.08,1.34-.16,1.08-.15,3.1-.41,3.38-.32.23.16-.12.8-.33,1.19-.1.18-.19.35-.23.47-.23.61-.3,1.32-.2,1.89.32,1.8,1.77,3.17,3.97,3.76.77.21,1.58.3,2.37.3,2.23,0,4.36-.78,5.49-2.13.82-.99,1.21-2.3,1.08-3.62-.11-1.1-.58-2.09-1.31-2.85.64-.03,1.34,0,2.06.03,2.21.1,4.72.22,6.18-1.67,1.08-1.4.62-4.07.21-6.42-.18-1.04-.35-2.03-.36-2.76,0-.38.07-1.07.6-1.48.83-.64,1.22-.4,1.87,0,.28.17.59.36.98.5,1.05.38,2.11.22,3.08-.44,1.72-1.18,2.79-3.71,2.84-5.47.02-.79-.16-2.11-.48-2.88ZM27.97,38.2c-.13.24-.22.65.04,1.19.24.5.56.81.88,1.12.49.48.91.9,1.01,1.93.1,1.09-.33,2-1.24,2.62-1.53,1.04-4.29,1.12-6.15.17-.79-.4-1.75-1.15-1.79-2.43-.02-.48.16-.81.36-1.19.12-.22.25-.46.34-.74.37-1.08.12-1.95-.68-2.39-.27-.15-.71-.21-1.23-.21-.87,0-1.96.16-2.91.3-.54.08-1,.15-1.31.17-2.73.19-4.51-.34-5.27-1.59-.15-1.46-.16-2.96-.17-4.42,0-.96-.02-1.95-.07-2.92,2.25.04,4.2-.85,5.21-2.36.91-1.36.94-3.09.1-4.86-1.12-2.34-2.97-3.17-5.83-2.58-.04-.25-.05-.8-.04-1.67v-.16c0-.98.07-1.98.14-2.95.06-.94.12-1.91.13-2.87,0-.15-.01-.37-.03-.63-.03-.46-.12-1.54.06-1.72.06-.06.24-.2.74-.39,1.3-.49,5.69-.48,7.08-.19.8.17,1.28.43,1.45.79.25.54-.17,1.36-.63,2.24-.58,1.13-1.25,2.41-.74,3.6.43,1,1.4,1.73,2.81,2.1,2.1.55,4.83.17,6.21-.88,2.06-1.56,1.49-3.08.89-4.68-.1-.26-.2-.54-.3-.82-.28-.84-.23-1.5.16-2.01,1.07-1.39,4.43-1.31,5.82-1.21,1.61.11,2.63.47,3.14,1.1.6.75.45,1.84.27,3.1-.17,1.17-.36,2.5.12,3.71,1.08,2.7,3.43,2.02,5.31,1.48.57-.16,1.1-.32,1.59-.39,1.45-.21,2.13.7,2.45,1.5.8,1.97.18,5.11-1.2,6.12-1.15.83-1.72.5-2.59-.02-.37-.22-.79-.46-1.29-.62-.92-.3-1.77-.19-2.46.31-.9.66-1.46,1.97-1.45,3.42,0,.86.2,1.8.41,2.79.54,2.62,1.06,5.09-1.71,6.24-.88.1-1.91.04-2.9-.02-1.13-.07-2.3-.14-3.31.03-.69.11-1.21.43-1.44.86Z"/>
      <path class="cls-1" d="M4.93,12.3c-1.21.06-2.41.13-3.61.21-.48.03-.93.19-1.31.5.13.48.35.69.92.72,1.09.05,2.17.08,3.26.07.38,0,.77-.11,1.14-.23.13-.04.28-.21.32-.35.14-.46-.23-.95-.71-.92Z"/>
      <path class="cls-1" d="M10.6,5.07c.22-.09.47-.2.59-.38.75-1.08,1.13-2.34,1.52-3.58.1-.34.06-.67-.26-.99-.03-.01-.12-.08-.22-.09-.46-.07-.68.04-.83.48-.39,1.24-.76,2.49-1.13,3.74-.05.17-.04.37-.03.55,0,.22.13.37.35.28Z"/>
      <path class="cls-1" d="M1.35,6.97c.74.55,1.47,1.11,2.24,1.62.39.26.85.42,1.28.6.27.11.46-.04.56-.29.14-.35,0-.63-.43-.9-.69-.43-1.38-.86-2.07-1.29-.57-.36-1.17-.66-1.86-.71-.16.47-.11.7.27.98Z"/>
      <path class="cls-1" d="M7.74,3.96c-.38-.88-.78-1.76-1.18-2.64-.16-.34-.34-.67-.52-1.02-.39.23-.53.54-.5.95.1,1.11.4,2.16.95,3.12.14.25.39.48.64.63.36.23.75.01.76-.42,0-.21-.06-.43-.15-.62Z"/>
      <path class="cls-1" d="M35.4,16.08c-.02-.46-.05-.93-.04-1.39.03-1.32.09-2.64.13-3.96,0-.19-.05-.39-.11-.58-.02-.07-.12-.15-.18-.15-.06,0-.17.07-.19.13-.06.14-.1.29-.11.45-.06.95-.12,1.9-.15,2.85-.04,1.11-.07,2.23.1,3.34.4-.08.56-.29.55-.69Z"/>
      <path class="cls-1" d="M33.24,14.67c.05-.18.13-.34.12-.49-.03-.71-.08-1.42-.15-2.13-.01-.11-.15-.22-.23-.33-.11.1-.22.19-.31.3-.04.05-.04.15-.04.22,0,.51,0,1.01.03,1.52.02.37.11.74.58.9Z"/>
    </g>
  </g>
</svg>