<?xml version="1.0" encoding="UTF-8"?>
<svg id="Camada_2" data-name="Camada 2" xmlns="http://www.w3.org/2000/svg" viewBox="0 0 152.29 110.66">
  <defs>
    <style>
      .cls-1 {
        fill: #391b15;
      }
    </style>
  </defs>
  <g id="Layer_1" data-name="Layer 1">
    <g id="KCQSIi.tif">
      <g>
        <path class="cls-1" d="M109.86.55c52.91-6.29,52.19,70.6,20.59,98.14-2.42,2.11-16.74,12.02-18.91,11.98-2.36-.05-3.8-4.38-4.36-6.38,12.95-7.19,25.7-18.23,29.48-33.21.68-2.72,2.94-18.1-.2-18.08-15.31,15.43-45.91,10.75-52.54-11.16-6.02-19.91,5-38.8,25.95-41.29Z"/>
        <path class="cls-1" d="M27.57,110.58l-3.06-6.88c19.63-7.96,35.15-28.84,30.84-50.73-14.26,13.77-43.53,12.01-51.92-7.27C-16.04.96,53.21-20.23,67.24,25.69c10.41,34.07-5.16,73.28-39.66,84.89Z"/>
      </g>
    </g>
  </g>
</svg>