<?xml version="1.0" encoding="UTF-8"?>
<svg id="Camada_2" data-name="Camada 2" xmlns="http://www.w3.org/2000/svg" viewBox="0 0 116.25 125.5">
  <defs>
    <style>
      .cls-1 {
        stroke-width: 1.5px;
      }

      .cls-1, .cls-2 {
        stroke: #391b15;
        stroke-miterlimit: 10;
      }

      .cls-1, .cls-2, .cls-3 {
        fill: #391b15;
      }

      .cls-2 {
        stroke-width: .5px;
      }
    </style>
  </defs>
  <g id="Layer_1" data-name="Layer 1">
    <g>
      <path class="cls-1" d="M11.36,119.61h0c-.13-.12-.27-.24-.41-.36.14.12.28.23.41.36Z"/>
      <path class="cls-1" d="M107.38,40.97c-1.15-4.03-1.73-8.34-3.51-12.07-5.46-11.4-13.96-19.94-25.65-24.98-6.48-2.79-13.24-3.96-20.3-2.61-3.23.62-6.48,1.17-9.71,1.78-4.99.94-10.05,1.62-14.94,2.94-7.01,1.88-11.84,6.75-15.66,12.73-5.12,8-8.46,16.81-11.78,25.65-2.45,6.53-4.53,13.11-4.54,20.2-.01,4.81-.25,9.63-.36,14.44-.07,2.95-.34,5.93-.06,8.85.61,6.34,1.78,12.61,4.08,18.58,1.51,3.93,3.21,7.79,4.92,11.64.2.45.65.79,1.08,1.13.14.12.28.23.41.36.17-.31.36-.62.54-.93s.34-.63.43-.96c.26-.91.31-1.87.51-3.17.47.55.69.79.88,1.05,4.51,5.81,10.54,8.66,17.76,9.12,1.03.07,2.08-.26,3.13-.41-.56-.88-1.02-1.85-1.69-2.63-3.44-4.02-4.75-8.93-5.88-13.91-1.36-6.04-2.77-12.03-6.05-17.44-1.2-1.98-1.88-4.36-2.43-6.64-.45-1.86-.35-3.85-.49-5.78.18-.01.36-.03.54-.04.27.88.55,1.76.83,2.64,1.59,5.01,3.6,9.82,7.44,13.56,8.01,7.79,17.97,10.84,28.8,11.44,5.94.33,11.71-.93,17.3-2.94,9.75-3.5,17.14-9.47,20.45-19.7.09-.27.32-.5.48-.74l.43.15c-.49,2.07-.87,4.17-1.48,6.2-1.26,4.15-2.74,8.23-3.94,12.39-2.26,7.79-4.24,15.67-9.58,22.12-.92,1.12-.53,1.77.99,1.79,8.15.06,15.52-1.68,20.58-9.37.22,1.17.32,2.02.55,2.83.14.5.38,1.12.78,1.35.24.14.89-.31,1.29-.59.37-.26.69-.63.97-1,3.98-5.2,6.93-10.93,8.77-17.24,1.78-6.12,2.13-12.4,2.25-18.72.16-8.69-.8-17.18-3.55-25.47-1.7-5.13-3.06-10.38-4.55-15.58ZM93.72,75.08c-1.31,5.66-3.01,11.2-6.7,15.84-4.43,5.58-10.46,8.72-17.11,10.65-13.98,4.07-27.08,2.14-38.98-6.45-5.68-4.1-8.14-10.27-10.23-16.72-1.46-4.5-1.24-8.69.46-12.99.67-1.71.86-3.62,1.57-5.31.84-2,1.69-4.14,3.1-5.72,3.76-4.19,7.65-8.23,9.79-13.66,1.49,2.73,2.68,5.44,4.34,7.83,4.65,6.67,11.44,10.32,18.98,12.66,7.4,2.29,15.03,3.04,22.76,2.97,1.06,0,2.13.46,3.2.5,2.31.08,4.63.02,7.34.02.61,3.05,2.36,6.52,1.47,10.37ZM113.68,83.76c-.14,7.49-1.07,14.76-3.98,21.7-1.66,3.95-3.73,7.66-6.7,11.35-.34-1.79-.57-3.23-.89-4.65-.09-.38-.43-.7-.65-1.05-.36.28-.92.49-1.06.85-2.53,6.7-7.89,9.52-14.45,10.7-1.27.23-2.58.29-3.8.42-.11-.29-.17-.37-.15-.39,4.98-6.99,6.84-15.22,9.22-23.25,1.21-4.09,2.82-8.07,3.89-12.2,1.96-7.6,1.19-15.16-.94-22.63-.25-.89-.26-1.47.52-2.24.68-.68,1.18-1.94,1.13-2.91-.52-10.34-3.1-20.1-8.71-28.9-.93-1.45-2.17-2.71-3.28-4.04-.16-.19-.42-.29-.83-.25,1.01,1.57,2.05,3.12,3.03,4.72,4.6,7.51,6.6,15.85,7.73,24.47.15,1.15.22,2.31.35,3.46.14,1.28-.45,2.21-1.54,2.65-1.54.62-3.13,1.15-4.75,1.49-1.49.31-2.59-.11-3.49-1.73-3.94-7.07-6.4-14.48-6.17-22.66.02-.8.08-1.59.13-2.46-1.42,2.12-1.8,7.59-.38,13.31,1.07,4.33,2.78,8.51,4.28,12.95-3.22-.15-6.68-.12-10.08-.53-3.48-.42-6.94-1.19-10.36-1.99-.81-.19-1.79-.96-2.1-1.71-1.15-2.76-2.06-5.63-3.04-8.46-.18-.52-.27-1.06-.41-1.6-.16.04-.32.07-.47.11.61,3.4,1.23,6.79,1.88,10.42-.87-.31-1.71-.56-2.52-.9-8.8-3.76-15.32-9.64-17.78-19.29-.06-.22-.08-.47-.19-.66-.31-.55-.67-1.07-1.01-1.6-.38.45-.94.84-1.12,1.36-2.02,5.63-5.4,10.33-9.64,14.47-2.37,2.31-3.86,5.06-4.62,8.36-1.1,4.78-2.71,9.44-3.83,14.21-1.31,5.57-.61,11.06,2.2,16.01,2.87,5.06,4.63,10.43,5.87,16.05,1.26,5.69,2.54,11.4,6.69,16.36-3.61-.27-6.58-1.23-9.41-2.64-3.67-1.82-6.45-4.63-8.63-8.09-.3-.48-.89-.77-1.35-1.15-.29.55-.67,1.07-.85,1.66-.24.82-.33,1.69-.55,2.85-.36-.46-.67-.73-.83-1.07-3.69-8.09-6.44-16.5-7.22-25.38-.37-4.23.14-8.54.22-12.81.09-4.64.14-9.29.2-13.93.06-5.49,1.84-10.58,3.68-15.64,3.14-8.65,6.39-17.24,11.03-25.24,4.19-7.21,9.73-12.71,18.11-14.51,4.95-1.07,9.98-1.79,14.98-2.63,3.63-.62,7.26-1.56,10.91-1.71,10.43-.43,19.46,3.4,27.4,10,5.65,4.7,10.1,10.41,13.06,17.11,1.54,3.49,2.16,7.38,3.23,11.09,1.69,5.86,3.31,11.75,5.14,17.57,2.58,8.24,3.05,16.67,2.89,25.24Z"/>
      <path class="cls-1" d="M11.36,119.61c.17-.31.36-.62.54-.93-.18.31-.37.61-.54.93h0Z"/>
      <path class="cls-2" d="M90.73,68.65c-2.02-.66-4.06-1.28-6.05-2.05-6.7-2.6-13.25-2.7-19.68.91-.75.42-1.97.59-2.74.29-3.28-1.27-6.53-1.1-9.89-.47-1.02.19-2.32.02-3.21-.47-3.8-2.1-7.78-3.05-12.12-2.82-5.2.28-9.73,2.72-14.53,4.29-1.49.49-1.06,1.95-1.18,2.99-.05.46.77,1.15,1.35,1.51,1.29.8,2.24,1.47,2.46,3.34.5,4.25,2.85,7.44,6.91,9.05,1.54.61,3.2.96,4.84,1.24,8.69,1.48,15.14-3.91,15.17-12.64,0-.64-.12-1.31.04-1.91.12-.45.5-1.06.9-1.18,2.41-.77,4.85-.96,7.31-.05,1.07.4,1.52.95,1.51,2.15,0,1.67.06,3.38.43,5,.97,4.31,3.15,7.8,7.66,9.03,1.8.49,3.78.66,5.64.53,6.17-.41,12.19-3.01,13.13-11.04.19-1.64,1-2.34,2.24-2.89,1.01-.45,1.55-1.04,1.45-2.25-.1-1.19-.36-2.15-1.63-2.56ZM49.48,72.82c-.3,1.64-.45,3.32-.92,4.91-1.38,4.74-4.92,6.87-10.07,6.39-1.92-.18-3.9-.56-5.67-1.3-3.78-1.58-5.59-5.69-5.32-10.21.16-2.76,1.38-4.04,3.88-4.91,5.23-1.83,10.26-1.82,15.25.67,1.84.92,3.29,2.03,2.86,4.46ZM85.94,76.73c-.84,4.71-3.88,7.34-8.75,7.99-.4.05-.8.1-1.2.16-6.1.98-10.73-2.53-11.43-8.67-.03-.23-.01-.46-.03-.69-.42-4.9-.06-5.59,4.58-7.18,2.04-.7,3.48-1.55,6.72-1.55,3.61,0,5.55,1.47,8.35,2.44.68.24,1.42,1.26,1.53,2.01.28,1.81.53,3.73.22,5.49Z"/>
      <path class="cls-1" d="M56.74,91.23c-2.32-.02-4.23-.91-5.44-3.14-.42,2.29.37,3.68,2.31,4.62,2.49,1.2,6.13.78,7.77-.98.89-.95,1.52-2.03.95-3.86-1.25,2.69-3.27,3.38-5.59,3.36Z"/>
      <path class="cls-3" d="M77.03,72.19c.02-.62,0-1.26.09-1.87.1-.72.31-1.43.41-1.89-1.16.58-2.29,1.66-3.25,1.53-3.19-.43-5.15,1.42-6,3.62-1.07,2.77-.26,6.35,1.76,7.96,3.06,2.44,7.18.57,7.97-3.72.38-2.03-.52-4.4,1.87-5.9-.47-.03-.71.13-.95.16-.63.07-1.27.08-1.9.12ZM72.03,80.13c-1.43-.02-1.91-1.12-1.92-2.4-.01-1.26.63-2.14,1.86-2.37.97-.18,2,1.14,2.01,2.68-.14.93-.48,2.12-1.95,2.09Z"/>
      <path class="cls-3" d="M41.05,70.03c-2.01.04-3.72-.04-4.72-2.27-.14.14-.28.28-.42.42.36,1.1.72,2.21,1.12,3.42-.72,1.81-2.01.34-3.34.19.39.58.55,1.04.88,1.28,1.03.73.93,1.64.98,2.79.06,1.6.49,3.36,1.32,4.71,1.6,2.6,5.07,2.76,7.15.53,1.96-2.1,2.24-4.63,1.41-7.27-.67-2.12-2.05-3.85-4.39-3.8ZM41.49,80.15c-1.38-.15-1.76-1.22-1.85-2.36-.09-1.2,1.11-2.24,1.97-2.39,1.07-.19,1.46-.68,2.33,2.1-.38,1.69-1.34,2.77-2.44,2.65Z"/>
    </g>
  </g>
</svg>