<?xml version="1.0" encoding="UTF-8"?>
<svg id="Camada_2" data-name="Camada 2" xmlns="http://www.w3.org/2000/svg" viewBox="0 0 48 45.87">
  <defs>
    <style>
      .cls-1 {
        fill: #411d13;
      }
    </style>
  </defs>
  <g id="Layer_1" data-name="Layer 1">
    <g id="_9sD4jk.tif" data-name="9sD4jk.tif">
      <g>
        <path class="cls-1" d="M48,31.12v2.06c-.16.71-.25,1.44-.47,2.14-1.49,4.89-6.32,8.58-11.11,9.92l-3.17.62c-.77-.04-1.6.06-2.36,0-3.01-.24-6.06-1.75-7.96-4.08-2.94-3.61-3.46-8.61-3.34-13.11-2.37.13-4.75.07-7.13.09-2.67.03-9.06.59-11.14-1.04C-.14,26.59-.03,24.2.03,22.52c.1-3,.51-6.02.6-9.03.11-3.76,0-7.55-.29-11.3.06-1.08,2.65-1.48,3.5-1.61,6.26-.98,13.49-.45,19.84-.31,4.03.09,8.43.44,12.39.29,1.17-.04,2.21-.67,2.98.55,1.61,2.54.69,11.11.6,14.32-.02.71-.12,2.96.05,3.5.11.36,1.89,1.63,2.32,2.01,2.82,2.54,5.66,6.25,5.99,10.17ZM2,2.48c-.13.74.1,1.82,0,2.6h36.17c-.14-.66.25-2.58-.22-3.02-.1-.09-.28-.11-.42-.12l-35.3.09c-.06.04-.22.38-.24.45ZM38.17,6.65H2c.15,1.17.12,2.4.1,3.59-.08,4.72-.74,11.15,0,15.7.05.3.14,1.03.45,1.12h17.46c.44-.85.76-1.74,1.26-2.57,3.35-5.57,10.7-8.35,16.89-6.06v-3.14c-1.25-.19-4.24.5-5.25-.21-.31-.22-.37-.81-.09-1.07.88-.8,4.14-.11,5.33-.29v-1.57c-2.22-.13-4.53.26-6.73.1-.61-.05-2.43-.24-1.83-1.23.2-.33,1.42-.5,1.83-.53,2.22-.17,4.5.24,6.73.1v-3.93ZM32.67,19.33c-5.9.22-10.91,4.96-11.68,10.77-1.49,11.18,11.35,18.43,20.18,11.63l.54-.54c-2.63-2.74-5.69-5.08-7.98-8.13-1.8-2.82-1.15-8.57-1.06-11.91.02-.61-.02-1.22,0-1.82ZM34.24,19.33v11.69l11.8.69c-.11-3.99-2.02-7.8-5.28-10.1-1.87-1.32-4.21-2.22-6.52-2.28ZM35.61,32.79l.75.78.97-.58-.1-.2h-1.62ZM40.63,32.98c-1.27-.17-2.41.8-3.44,1.42l.83.83c.65-.84,1.59-1.31,2.38-1.94.12-.09.27-.11.22-.32ZM44.46,33.28l-1.18-.05c-1.31.95-3.07,1.58-4.35,2.52-.08.06-.19.09-.16.22.01.07.82.92,1.01.83l4.69-3.53ZM45.84,33.97l-5.5,3.58c.66.97,1.01.3,1.76-.09,1.04-.54,2.1-1.08,3.18-1.51l.55-1.97ZM44.56,37.6l-2.75,1.42c.19.14,1.01,1.15,1.18,1.03l1.57-2.45Z"/>
        <path class="cls-1" d="M16.15,22.37c.12-.56.11-1.15.1-1.72-.05-2.52-.52-5.04-.2-7.56.12-.94.36-2.4,1.52-2.51,1-.09,3.01-.12,3.27,1.16l.11,10.69c1.51,1.01-.17,1.36-1.13,1.5-4.95.73-10.68-.17-15.72-.09-.37,0-.57.22-.97,0-.43-.25-.49-.94-.11-1.27.18-.15.51-.18.53-.2.02-.03.1-.66.1-.74.02-1.97-.59-4.88.03-6.74.34-1.01.88-1.18,1.89-1.25.93-.06,1.68-.02,2.25.79,1.27,1.82.04,5.82.45,7.95h1.57c.08-1.14-.48-4.05.86-4.59.5-.2,1.59-.28,2.13-.21,2.32.28,1.66,3.17,1.73,4.8h1.57ZM19.3,12.15h-1.57v10.22h1.57v-10.22ZM6.72,15.3h-1.57v7.07h1.57v-7.07ZM13.01,19.23h-1.57v3.14h1.57v-3.14Z"/>
        <path class="cls-1" d="M30.48,13.94c.95-.29,1.26,1.18.35,1.34-.81.15-1.13-1.1-.35-1.34Z"/>
        <path class="cls-1" d="M27.83,22.29c.14-.02.29-.06.42.02.14.11.11.21.05.35-.12.25-1.1,1.06-1.38,1.37-1.68,1.95-1.94,3.19-2.31,5.64-.16,1.02-1.34,1.18-1.54.18-.51-2.54,2.09-7.17,4.77-7.57Z"/>
        <path class="cls-1" d="M24.43,3.34c.98-.24,2.57-.43,3.48.05.57.3.29.72-.22.8-.61.1-2.29,0-2.94-.1-.15-.02-.39-.1-.44-.26l.11-.5Z"/>
        <path class="cls-1" d="M31.07,3.05c.47-.02,1.99.02,1.78.79-.07.24-.6.42-.83.45-.3.04-1.54-.05-1.82-.13-.35-.11-.54-.49-.3-.8.15-.19.91-.29,1.17-.31Z"/>
        <path class="cls-1" d="M34.71,3.04c1.49-.08,1.81,1.31.36,1.26-.32-.01-1.26-.11-1.43-.34-.43-.58.63-.89,1.07-.92Z"/>
        <path class="cls-1" d="M42.47,27.46c-.24.25-.76,0-.96-.22-.39-.41-.97-1.66-1.39-2.24-.49-.69-1.11-1.28-1.56-1.98l.14-.25c.35-.27.98.27,1.28.5.72.53,1.45,1.34,1.94,2.09.33.49,1.07,1.57.54,2.11Z"/>
        <path class="cls-1" d="M42.96,28.29c1.37-.31,1.31,1.75.12,1.51-.84-.16-.85-1.35-.12-1.51Z"/>
      </g>
    </g>
  </g>
</svg>